<mxfile host="app.diagrams.net" modified="2022-07-01T16:40:34.197Z" agent="5.0 (Windows NT 10.0; Win64; x64) AppleWebKit/537.36 (KHTML, like Gecko) Chrome/103.0.5060.53 Safari/537.36 Edg/103.0.1264.37" etag="qYTatUJGEntdCQqucT8L" version="20.0.4" type="github">
  <diagram id="ESeWQcEwTvRX7gBMLoD0" name="Page-1">
    <mxGraphModel dx="1422" dy="762" grid="1" gridSize="10" guides="1" tooltips="1" connect="1" arrows="1" fold="1" page="1" pageScale="1" pageWidth="827" pageHeight="1169" math="0" shadow="0">
      <root>
        <mxCell id="0" />
        <mxCell id="1" parent="0" />
        <mxCell id="2fLFqzH-GrjsBNPmDIY3-5" style="edgeStyle=orthogonalEdgeStyle;rounded=0;orthogonalLoop=1;jettySize=auto;html=1;entryX=0.5;entryY=0;entryDx=0;entryDy=0;" edge="1" parent="1" source="2fLFqzH-GrjsBNPmDIY3-1" target="2fLFqzH-GrjsBNPmDIY3-3">
          <mxGeometry relative="1" as="geometry" />
        </mxCell>
        <mxCell id="2fLFqzH-GrjsBNPmDIY3-1" value="" style="ellipse;html=1;shape=startState;fillColor=#000000;strokeColor=#ff0000;" vertex="1" parent="1">
          <mxGeometry x="399" y="20" width="30" height="30" as="geometry" />
        </mxCell>
        <mxCell id="2fLFqzH-GrjsBNPmDIY3-7" style="edgeStyle=orthogonalEdgeStyle;rounded=0;orthogonalLoop=1;jettySize=auto;html=1;entryX=0.5;entryY=0;entryDx=0;entryDy=0;" edge="1" parent="1" source="2fLFqzH-GrjsBNPmDIY3-3" target="2fLFqzH-GrjsBNPmDIY3-6">
          <mxGeometry relative="1" as="geometry" />
        </mxCell>
        <mxCell id="2fLFqzH-GrjsBNPmDIY3-3" value="if stopwatch stop&amp;nbsp;&lt;br&gt;stopwatch running" style="rounded=1;whiteSpace=wrap;html=1;arcSize=40;fontColor=#000000;fillColor=#ffffc0;strokeColor=#ff0000;" vertex="1" parent="1">
          <mxGeometry x="354" y="110" width="120" height="40" as="geometry" />
        </mxCell>
        <mxCell id="2fLFqzH-GrjsBNPmDIY3-14" style="edgeStyle=orthogonalEdgeStyle;rounded=0;orthogonalLoop=1;jettySize=auto;html=1;entryX=0.5;entryY=0;entryDx=0;entryDy=0;" edge="1" parent="1" source="2fLFqzH-GrjsBNPmDIY3-6" target="2fLFqzH-GrjsBNPmDIY3-9">
          <mxGeometry relative="1" as="geometry" />
        </mxCell>
        <mxCell id="2fLFqzH-GrjsBNPmDIY3-6" value="if NeedsToReset&amp;nbsp;&lt;br&gt;Reset()" style="rounded=1;whiteSpace=wrap;html=1;arcSize=40;fontColor=#000000;fillColor=#ffffc0;strokeColor=#ff0000;" vertex="1" parent="1">
          <mxGeometry x="354" y="180" width="120" height="40" as="geometry" />
        </mxCell>
        <mxCell id="2fLFqzH-GrjsBNPmDIY3-8" value="NeedsToReset= true" style="text;strokeColor=none;fillColor=none;align=left;verticalAlign=top;spacingLeft=4;spacingRight=4;overflow=hidden;rotatable=0;points=[[0,0.5],[1,0.5]];portConstraint=eastwest;" vertex="1" parent="1">
          <mxGeometry x="420" y="84" width="130" height="26" as="geometry" />
        </mxCell>
        <mxCell id="2fLFqzH-GrjsBNPmDIY3-19" style="edgeStyle=orthogonalEdgeStyle;rounded=0;orthogonalLoop=1;jettySize=auto;html=1;exitX=0.5;exitY=1;exitDx=0;exitDy=0;entryX=0.5;entryY=0;entryDx=0;entryDy=0;" edge="1" parent="1" source="2fLFqzH-GrjsBNPmDIY3-9" target="2fLFqzH-GrjsBNPmDIY3-16">
          <mxGeometry relative="1" as="geometry" />
        </mxCell>
        <mxCell id="2fLFqzH-GrjsBNPmDIY3-9" value="delay 200" style="rounded=1;whiteSpace=wrap;html=1;arcSize=40;fontColor=#000000;fillColor=#ffffc0;strokeColor=#ff0000;" vertex="1" parent="1">
          <mxGeometry x="382" y="250" width="64" height="20" as="geometry" />
        </mxCell>
        <mxCell id="2fLFqzH-GrjsBNPmDIY3-11" value="Stack&lt;WowPoint&gt; points" style="text;strokeColor=none;fillColor=none;align=left;verticalAlign=top;spacingLeft=4;spacingRight=4;overflow=hidden;rotatable=0;points=[[0,0.5],[1,0.5]];portConstraint=eastwest;" vertex="1" parent="1">
          <mxGeometry x="420" y="70" width="150" height="26" as="geometry" />
        </mxCell>
        <mxCell id="2fLFqzH-GrjsBNPmDIY3-12" value="" style="endArrow=none;dashed=1;html=1;dashPattern=1 3;strokeWidth=2;rounded=0;exitX=1;exitY=0.5;exitDx=0;exitDy=0;" edge="1" parent="1" source="2fLFqzH-GrjsBNPmDIY3-6">
          <mxGeometry width="50" height="50" relative="1" as="geometry">
            <mxPoint x="560" y="240" as="sourcePoint" />
            <mxPoint x="530" y="200" as="targetPoint" />
          </mxGeometry>
        </mxCell>
        <mxCell id="2fLFqzH-GrjsBNPmDIY3-13" value="fill points" style="text;strokeColor=none;fillColor=none;align=left;verticalAlign=top;spacingLeft=4;spacingRight=4;overflow=hidden;rotatable=0;points=[[0,0.5],[1,0.5]];portConstraint=eastwest;" vertex="1" parent="1">
          <mxGeometry x="530" y="187" width="150" height="26" as="geometry" />
        </mxCell>
        <mxCell id="2fLFqzH-GrjsBNPmDIY3-21" style="edgeStyle=orthogonalEdgeStyle;rounded=0;orthogonalLoop=1;jettySize=auto;html=1;entryX=0;entryY=0.5;entryDx=0;entryDy=0;" edge="1" parent="1" source="2fLFqzH-GrjsBNPmDIY3-16" target="2fLFqzH-GrjsBNPmDIY3-20">
          <mxGeometry relative="1" as="geometry">
            <Array as="points">
              <mxPoint x="60" y="320" />
              <mxPoint x="60" y="1345" />
            </Array>
          </mxGeometry>
        </mxCell>
        <mxCell id="2fLFqzH-GrjsBNPmDIY3-22" value="yes" style="edgeLabel;html=1;align=center;verticalAlign=middle;resizable=0;points=[];" vertex="1" connectable="0" parent="2fLFqzH-GrjsBNPmDIY3-21">
          <mxGeometry x="-0.5157" y="-2" relative="1" as="geometry">
            <mxPoint as="offset" />
          </mxGeometry>
        </mxCell>
        <mxCell id="2fLFqzH-GrjsBNPmDIY3-24" value="no" style="edgeStyle=orthogonalEdgeStyle;rounded=0;orthogonalLoop=1;jettySize=auto;html=1;entryX=0.5;entryY=0;entryDx=0;entryDy=0;" edge="1" parent="1" source="2fLFqzH-GrjsBNPmDIY3-16" target="2fLFqzH-GrjsBNPmDIY3-23">
          <mxGeometry relative="1" as="geometry" />
        </mxCell>
        <mxCell id="2fLFqzH-GrjsBNPmDIY3-16" value="!DeadStatus" style="rhombus;whiteSpace=wrap;html=1;fillColor=#ffffc0;strokeColor=#ff0000;" vertex="1" parent="1">
          <mxGeometry x="374" y="300" width="80" height="40" as="geometry" />
        </mxCell>
        <mxCell id="2fLFqzH-GrjsBNPmDIY3-20" value="" style="ellipse;html=1;shape=endState;fillColor=#000000;strokeColor=#ff0000;" vertex="1" parent="1">
          <mxGeometry x="397.63" y="1330" width="30" height="30" as="geometry" />
        </mxCell>
        <mxCell id="2fLFqzH-GrjsBNPmDIY3-29" style="edgeStyle=orthogonalEdgeStyle;rounded=0;orthogonalLoop=1;jettySize=auto;html=1;exitX=0.5;exitY=1;exitDx=0;exitDy=0;entryX=0.5;entryY=0;entryDx=0;entryDy=0;" edge="1" parent="1" source="2fLFqzH-GrjsBNPmDIY3-23" target="2fLFqzH-GrjsBNPmDIY3-26">
          <mxGeometry relative="1" as="geometry" />
        </mxCell>
        <mxCell id="2fLFqzH-GrjsBNPmDIY3-23" value="location&lt;br&gt;distance = 0&lt;br&gt;heading = 0" style="rounded=1;whiteSpace=wrap;html=1;arcSize=40;fontColor=#000000;fillColor=#ffffc0;strokeColor=#ff0000;" vertex="1" parent="1">
          <mxGeometry x="370" y="370" width="88" height="40" as="geometry" />
        </mxCell>
        <mxCell id="2fLFqzH-GrjsBNPmDIY3-30" value="yes" style="edgeStyle=orthogonalEdgeStyle;rounded=0;orthogonalLoop=1;jettySize=auto;html=1;entryX=0.5;entryY=0;entryDx=0;entryDy=0;" edge="1" parent="1" source="2fLFqzH-GrjsBNPmDIY3-26" target="2fLFqzH-GrjsBNPmDIY3-27">
          <mxGeometry relative="1" as="geometry" />
        </mxCell>
        <mxCell id="2fLFqzH-GrjsBNPmDIY3-32" style="edgeStyle=orthogonalEdgeStyle;rounded=0;orthogonalLoop=1;jettySize=auto;html=1;" edge="1" parent="1" source="2fLFqzH-GrjsBNPmDIY3-26" target="2fLFqzH-GrjsBNPmDIY3-31">
          <mxGeometry relative="1" as="geometry" />
        </mxCell>
        <mxCell id="2fLFqzH-GrjsBNPmDIY3-33" value="no" style="edgeLabel;html=1;align=center;verticalAlign=middle;resizable=0;points=[];" vertex="1" connectable="0" parent="2fLFqzH-GrjsBNPmDIY3-32">
          <mxGeometry x="-0.6448" y="-1" relative="1" as="geometry">
            <mxPoint as="offset" />
          </mxGeometry>
        </mxCell>
        <mxCell id="2fLFqzH-GrjsBNPmDIY3-26" value="points count&lt;br&gt;== 0" style="rhombus;whiteSpace=wrap;html=1;fillColor=#ffffc0;strokeColor=#ff0000;" vertex="1" parent="1">
          <mxGeometry x="374" y="430" width="80" height="40" as="geometry" />
        </mxCell>
        <mxCell id="2fLFqzH-GrjsBNPmDIY3-37" style="edgeStyle=orthogonalEdgeStyle;rounded=0;orthogonalLoop=1;jettySize=auto;html=1;entryX=0.5;entryY=0;entryDx=0;entryDy=0;exitX=0.5;exitY=1;exitDx=0;exitDy=0;" edge="1" parent="1" source="2fLFqzH-GrjsBNPmDIY3-31" target="2fLFqzH-GrjsBNPmDIY3-36">
          <mxGeometry relative="1" as="geometry" />
        </mxCell>
        <mxCell id="2fLFqzH-GrjsBNPmDIY3-38" style="edgeStyle=orthogonalEdgeStyle;rounded=0;orthogonalLoop=1;jettySize=auto;html=1;fontColor=#0000FF;" edge="1" parent="1" source="2fLFqzH-GrjsBNPmDIY3-27" target="2fLFqzH-GrjsBNPmDIY3-20">
          <mxGeometry relative="1" as="geometry">
            <mxPoint x="160" y="620" as="targetPoint" />
            <Array as="points">
              <mxPoint x="60" y="540" />
              <mxPoint x="60" y="1345" />
            </Array>
          </mxGeometry>
        </mxCell>
        <mxCell id="2fLFqzH-GrjsBNPmDIY3-27" value="&quot;no more points, heading to corpse&quot;&lt;br&gt;distance(Corpse)&lt;br&gt;heading(Corpse)&lt;br&gt;SetDirection(Corpse)&lt;br&gt;&lt;font color=&quot;#0000ff&quot;&gt;return&lt;/font&gt;" style="rounded=1;whiteSpace=wrap;html=1;arcSize=40;fontColor=#000000;fillColor=#ffffc0;strokeColor=#ff0000;" vertex="1" parent="1">
          <mxGeometry x="100" y="500" width="201" height="80" as="geometry" />
        </mxCell>
        <mxCell id="2fLFqzH-GrjsBNPmDIY3-28" value="&lt;span style=&quot;color: rgb(0, 0, 0); font-family: Helvetica; font-size: 12px; font-style: normal; font-variant-ligatures: normal; font-variant-caps: normal; font-weight: 400; letter-spacing: normal; orphans: 2; text-align: center; text-indent: 0px; text-transform: none; widows: 2; word-spacing: 0px; -webkit-text-stroke-width: 0px; background-color: rgb(248, 249, 250); text-decoration-thickness: initial; text-decoration-style: initial; text-decoration-color: initial; float: none; display: inline !important;&quot;&gt;CorpseLocation&lt;/span&gt;" style="text;whiteSpace=wrap;html=1;" vertex="1" parent="1">
          <mxGeometry x="425" y="56" width="120" height="40" as="geometry" />
        </mxCell>
        <mxCell id="2fLFqzH-GrjsBNPmDIY3-31" value="&quot;get next point&quot;&lt;br&gt;distance(next point)&lt;br&gt;heading(next point)&lt;br&gt;" style="rounded=1;whiteSpace=wrap;html=1;arcSize=40;fontColor=#000000;fillColor=#ffffc0;strokeColor=#ff0000;" vertex="1" parent="1">
          <mxGeometry x="313" y="500" width="201" height="50" as="geometry" />
        </mxCell>
        <mxCell id="2fLFqzH-GrjsBNPmDIY3-34" value="lastDistance = 999" style="text;whiteSpace=wrap;html=1;" vertex="1" parent="1">
          <mxGeometry x="425" y="44" width="115" height="40" as="geometry" />
        </mxCell>
        <mxCell id="2fLFqzH-GrjsBNPmDIY3-41" style="edgeStyle=orthogonalEdgeStyle;rounded=0;orthogonalLoop=1;jettySize=auto;html=1;entryX=0.5;entryY=0;entryDx=0;entryDy=0;fontColor=#0000FF;" edge="1" parent="1" source="2fLFqzH-GrjsBNPmDIY3-36" target="2fLFqzH-GrjsBNPmDIY3-39">
          <mxGeometry relative="1" as="geometry" />
        </mxCell>
        <mxCell id="2fLFqzH-GrjsBNPmDIY3-42" value="&amp;gt;lastDistance" style="edgeLabel;html=1;align=center;verticalAlign=middle;resizable=0;points=[];fontColor=#000000;" vertex="1" connectable="0" parent="2fLFqzH-GrjsBNPmDIY3-41">
          <mxGeometry x="-0.1073" y="1" relative="1" as="geometry">
            <mxPoint as="offset" />
          </mxGeometry>
        </mxCell>
        <mxCell id="2fLFqzH-GrjsBNPmDIY3-52" value="== lastDistance" style="edgeStyle=orthogonalEdgeStyle;rounded=0;orthogonalLoop=1;jettySize=auto;html=1;entryX=0.5;entryY=0;entryDx=0;entryDy=0;fontColor=#000000;" edge="1" parent="1" source="2fLFqzH-GrjsBNPmDIY3-36" target="2fLFqzH-GrjsBNPmDIY3-44">
          <mxGeometry relative="1" as="geometry" />
        </mxCell>
        <mxCell id="2fLFqzH-GrjsBNPmDIY3-54" style="edgeStyle=orthogonalEdgeStyle;rounded=0;orthogonalLoop=1;jettySize=auto;html=1;entryX=0.5;entryY=0;entryDx=0;entryDy=0;fontColor=#000000;" edge="1" parent="1" source="2fLFqzH-GrjsBNPmDIY3-36" target="2fLFqzH-GrjsBNPmDIY3-53">
          <mxGeometry relative="1" as="geometry" />
        </mxCell>
        <mxCell id="2fLFqzH-GrjsBNPmDIY3-55" value="&amp;lt;lastDistance" style="edgeLabel;html=1;align=center;verticalAlign=middle;resizable=0;points=[];fontColor=#000000;" vertex="1" connectable="0" parent="2fLFqzH-GrjsBNPmDIY3-54">
          <mxGeometry x="-0.4332" relative="1" as="geometry">
            <mxPoint as="offset" />
          </mxGeometry>
        </mxCell>
        <mxCell id="2fLFqzH-GrjsBNPmDIY3-36" value="&lt;span style=&quot;text-align: left;&quot;&gt;distance&lt;/span&gt;" style="rhombus;whiteSpace=wrap;html=1;fillColor=#ffffc0;strokeColor=#ff0000;" vertex="1" parent="1">
          <mxGeometry x="374" y="585" width="80" height="40" as="geometry" />
        </mxCell>
        <mxCell id="2fLFqzH-GrjsBNPmDIY3-68" style="edgeStyle=orthogonalEdgeStyle;rounded=0;orthogonalLoop=1;jettySize=auto;html=1;exitX=0.5;exitY=1;exitDx=0;exitDy=0;entryX=0;entryY=0.5;entryDx=0;entryDy=0;fontColor=#000000;" edge="1" parent="1" source="2fLFqzH-GrjsBNPmDIY3-39" target="2fLFqzH-GrjsBNPmDIY3-63">
          <mxGeometry relative="1" as="geometry">
            <Array as="points">
              <mxPoint x="241" y="915" />
            </Array>
          </mxGeometry>
        </mxCell>
        <mxCell id="2fLFqzH-GrjsBNPmDIY3-39" value="&quot;Further away&quot;&lt;br&gt;SetDirection(nPoint)" style="rounded=1;whiteSpace=wrap;html=1;arcSize=40;fontColor=#000000;fillColor=#ffffc0;strokeColor=#ff0000;" vertex="1" parent="1">
          <mxGeometry x="181" y="660" width="120" height="40" as="geometry" />
        </mxCell>
        <mxCell id="2fLFqzH-GrjsBNPmDIY3-46" style="edgeStyle=orthogonalEdgeStyle;rounded=0;orthogonalLoop=1;jettySize=auto;html=1;entryX=0.5;entryY=0;entryDx=0;entryDy=0;fontColor=#000000;" edge="1" parent="1" source="2fLFqzH-GrjsBNPmDIY3-44" target="2fLFqzH-GrjsBNPmDIY3-45">
          <mxGeometry relative="1" as="geometry" />
        </mxCell>
        <mxCell id="2fLFqzH-GrjsBNPmDIY3-44" value="&quot;&lt;span style=&quot;text-align: left;&quot;&gt;Stuck&lt;/span&gt;&quot;&lt;br&gt;press UP&lt;br&gt;delay 100&lt;br&gt;" style="rounded=1;whiteSpace=wrap;html=1;arcSize=40;fontColor=#000000;fillColor=#ffffc0;strokeColor=#ff0000;" vertex="1" parent="1">
          <mxGeometry x="354" y="650" width="120" height="50" as="geometry" />
        </mxCell>
        <mxCell id="2fLFqzH-GrjsBNPmDIY3-50" value="yes" style="edgeStyle=orthogonalEdgeStyle;rounded=0;orthogonalLoop=1;jettySize=auto;html=1;exitX=0.5;exitY=1;exitDx=0;exitDy=0;entryX=0.5;entryY=0;entryDx=0;entryDy=0;fontColor=#000000;" edge="1" parent="1" source="2fLFqzH-GrjsBNPmDIY3-45" target="2fLFqzH-GrjsBNPmDIY3-47">
          <mxGeometry relative="1" as="geometry">
            <Array as="points">
              <mxPoint x="414" y="770" />
              <mxPoint x="345" y="770" />
            </Array>
          </mxGeometry>
        </mxCell>
        <mxCell id="2fLFqzH-GrjsBNPmDIY3-51" value="no" style="edgeStyle=orthogonalEdgeStyle;rounded=0;orthogonalLoop=1;jettySize=auto;html=1;entryX=0.5;entryY=0;entryDx=0;entryDy=0;fontColor=#000000;" edge="1" parent="1" source="2fLFqzH-GrjsBNPmDIY3-45" target="2fLFqzH-GrjsBNPmDIY3-49">
          <mxGeometry relative="1" as="geometry">
            <Array as="points">
              <mxPoint x="414" y="770" />
              <mxPoint x="483" y="770" />
            </Array>
          </mxGeometry>
        </mxCell>
        <mxCell id="2fLFqzH-GrjsBNPmDIY3-45" value="LastActive &amp;lt; 2" style="rhombus;whiteSpace=wrap;html=1;fillColor=#ffffc0;strokeColor=#ff0000;" vertex="1" parent="1">
          <mxGeometry x="374" y="720" width="80" height="40" as="geometry" />
        </mxCell>
        <mxCell id="2fLFqzH-GrjsBNPmDIY3-67" style="edgeStyle=orthogonalEdgeStyle;rounded=0;orthogonalLoop=1;jettySize=auto;html=1;exitX=0.5;exitY=1;exitDx=0;exitDy=0;fontColor=#000000;entryX=0.5;entryY=0;entryDx=0;entryDy=0;" edge="1" parent="1" source="2fLFqzH-GrjsBNPmDIY3-47" target="2fLFqzH-GrjsBNPmDIY3-63">
          <mxGeometry relative="1" as="geometry">
            <mxPoint x="420" y="900" as="targetPoint" />
          </mxGeometry>
        </mxCell>
        <mxCell id="2fLFqzH-GrjsBNPmDIY3-47" value="&quot;&lt;span style=&quot;text-align: left;&quot;&gt;Stuck&lt;/span&gt;&quot;&lt;br&gt;press SPACE" style="rounded=1;whiteSpace=wrap;html=1;arcSize=40;fontColor=#000000;fillColor=#ffffc0;strokeColor=#ff0000;" vertex="1" parent="1">
          <mxGeometry x="300" y="780" width="90" height="30" as="geometry" />
        </mxCell>
        <mxCell id="2fLFqzH-GrjsBNPmDIY3-66" style="edgeStyle=orthogonalEdgeStyle;rounded=0;orthogonalLoop=1;jettySize=auto;html=1;exitX=0.5;exitY=1;exitDx=0;exitDy=0;entryX=0.5;entryY=0;entryDx=0;entryDy=0;fontColor=#000000;" edge="1" parent="1" source="2fLFqzH-GrjsBNPmDIY3-49" target="2fLFqzH-GrjsBNPmDIY3-63">
          <mxGeometry relative="1" as="geometry" />
        </mxCell>
        <mxCell id="2fLFqzH-GrjsBNPmDIY3-49" value="&lt;span style=&quot;text-align: left;&quot;&gt;&quot;Resuming movement&quot;&lt;/span&gt;" style="rounded=1;whiteSpace=wrap;html=1;arcSize=40;fontColor=#000000;fillColor=#ffffc0;strokeColor=#ff0000;" vertex="1" parent="1">
          <mxGeometry x="437.5" y="780" width="90" height="30" as="geometry" />
        </mxCell>
        <mxCell id="2fLFqzH-GrjsBNPmDIY3-60" style="edgeStyle=orthogonalEdgeStyle;rounded=0;orthogonalLoop=1;jettySize=auto;html=1;exitX=0.5;exitY=1;exitDx=0;exitDy=0;entryX=0.5;entryY=0;entryDx=0;entryDy=0;fontColor=#000000;" edge="1" parent="1" source="2fLFqzH-GrjsBNPmDIY3-53" target="2fLFqzH-GrjsBNPmDIY3-56">
          <mxGeometry relative="1" as="geometry" />
        </mxCell>
        <mxCell id="2fLFqzH-GrjsBNPmDIY3-53" value="&quot;Closer&quot;" style="rounded=1;whiteSpace=wrap;html=1;arcSize=40;fontColor=#000000;fillColor=#ffffc0;strokeColor=#ff0000;" vertex="1" parent="1">
          <mxGeometry x="540" y="662.5" width="77.5" height="25" as="geometry" />
        </mxCell>
        <mxCell id="2fLFqzH-GrjsBNPmDIY3-61" style="edgeStyle=orthogonalEdgeStyle;rounded=0;orthogonalLoop=1;jettySize=auto;html=1;exitX=0.5;exitY=1;exitDx=0;exitDy=0;entryX=0.5;entryY=0;entryDx=0;entryDy=0;fontColor=#000000;" edge="1" parent="1" source="2fLFqzH-GrjsBNPmDIY3-56" target="2fLFqzH-GrjsBNPmDIY3-57">
          <mxGeometry relative="1" as="geometry" />
        </mxCell>
        <mxCell id="2fLFqzH-GrjsBNPmDIY3-56" value="diff" style="rounded=1;whiteSpace=wrap;html=1;arcSize=40;fontColor=#000000;fillColor=#ffffc0;strokeColor=#ff0000;" vertex="1" parent="1">
          <mxGeometry x="540" y="710" width="77.5" height="25" as="geometry" />
        </mxCell>
        <mxCell id="2fLFqzH-GrjsBNPmDIY3-62" value="yes" style="edgeStyle=orthogonalEdgeStyle;rounded=0;orthogonalLoop=1;jettySize=auto;html=1;entryX=0.5;entryY=0;entryDx=0;entryDy=0;fontColor=#000000;" edge="1" parent="1" source="2fLFqzH-GrjsBNPmDIY3-57" target="2fLFqzH-GrjsBNPmDIY3-59">
          <mxGeometry relative="1" as="geometry" />
        </mxCell>
        <mxCell id="2fLFqzH-GrjsBNPmDIY3-64" value="no" style="edgeStyle=orthogonalEdgeStyle;rounded=0;orthogonalLoop=1;jettySize=auto;html=1;entryX=1;entryY=0.5;entryDx=0;entryDy=0;fontColor=#000000;" edge="1" parent="1" source="2fLFqzH-GrjsBNPmDIY3-57" target="2fLFqzH-GrjsBNPmDIY3-63">
          <mxGeometry x="-0.444" relative="1" as="geometry">
            <Array as="points">
              <mxPoint x="700" y="780" />
              <mxPoint x="700" y="915" />
            </Array>
            <mxPoint as="offset" />
          </mxGeometry>
        </mxCell>
        <mxCell id="2fLFqzH-GrjsBNPmDIY3-57" value="diff &amp;gt; 0.3" style="rhombus;whiteSpace=wrap;html=1;fillColor=#ffffc0;strokeColor=#ff0000;" vertex="1" parent="1">
          <mxGeometry x="540" y="760" width="80" height="40" as="geometry" />
        </mxCell>
        <mxCell id="2fLFqzH-GrjsBNPmDIY3-65" style="edgeStyle=orthogonalEdgeStyle;rounded=0;orthogonalLoop=1;jettySize=auto;html=1;exitX=0.5;exitY=1;exitDx=0;exitDy=0;fontColor=#000000;entryX=1;entryY=0.5;entryDx=0;entryDy=0;" edge="1" parent="1" source="2fLFqzH-GrjsBNPmDIY3-59" target="2fLFqzH-GrjsBNPmDIY3-63">
          <mxGeometry relative="1" as="geometry">
            <mxPoint x="530" y="890" as="targetPoint" />
            <Array as="points">
              <mxPoint x="580" y="915" />
            </Array>
          </mxGeometry>
        </mxCell>
        <mxCell id="2fLFqzH-GrjsBNPmDIY3-59" value="&quot;Correcting direction&quot;&lt;br&gt;SetDirection(nPoint)" style="rounded=1;whiteSpace=wrap;html=1;arcSize=40;fontColor=#000000;fillColor=#ffffc0;strokeColor=#ff0000;" vertex="1" parent="1">
          <mxGeometry x="510.63" y="840" width="138.75" height="30" as="geometry" />
        </mxCell>
        <mxCell id="2fLFqzH-GrjsBNPmDIY3-73" style="edgeStyle=orthogonalEdgeStyle;rounded=0;orthogonalLoop=1;jettySize=auto;html=1;exitX=0.5;exitY=1;exitDx=0;exitDy=0;entryX=0.5;entryY=0;entryDx=0;entryDy=0;fontColor=#000000;" edge="1" parent="1" source="2fLFqzH-GrjsBNPmDIY3-63" target="2fLFqzH-GrjsBNPmDIY3-70">
          <mxGeometry relative="1" as="geometry" />
        </mxCell>
        <mxCell id="2fLFqzH-GrjsBNPmDIY3-63" value="lastDistance = distance" style="rounded=1;whiteSpace=wrap;html=1;arcSize=40;fontColor=#000000;fillColor=#ffffc0;strokeColor=#ff0000;" vertex="1" parent="1">
          <mxGeometry x="344.62" y="900" width="138.75" height="30" as="geometry" />
        </mxCell>
        <mxCell id="2fLFqzH-GrjsBNPmDIY3-77" style="edgeStyle=orthogonalEdgeStyle;rounded=0;orthogonalLoop=1;jettySize=auto;html=1;exitX=0.5;exitY=1;exitDx=0;exitDy=0;entryX=0.5;entryY=0;entryDx=0;entryDy=0;fontColor=#000000;" edge="1" parent="1" source="2fLFqzH-GrjsBNPmDIY3-69" target="2fLFqzH-GrjsBNPmDIY3-71">
          <mxGeometry relative="1" as="geometry" />
        </mxCell>
        <mxCell id="2fLFqzH-GrjsBNPmDIY3-69" value="&quot;Move to next point&quot;&lt;br&gt;stopwatch.reset&lt;br&gt;points.pop&lt;br&gt;lastDistance = 999" style="rounded=1;whiteSpace=wrap;html=1;arcSize=40;fontColor=#000000;fillColor=#ffffc0;strokeColor=#ff0000;" vertex="1" parent="1">
          <mxGeometry x="344" y="1030" width="138.75" height="60" as="geometry" />
        </mxCell>
        <mxCell id="2fLFqzH-GrjsBNPmDIY3-74" value="yes" style="edgeStyle=orthogonalEdgeStyle;rounded=0;orthogonalLoop=1;jettySize=auto;html=1;exitX=0.5;exitY=1;exitDx=0;exitDy=0;entryX=0.5;entryY=0;entryDx=0;entryDy=0;fontColor=#000000;" edge="1" parent="1" source="2fLFqzH-GrjsBNPmDIY3-70" target="2fLFqzH-GrjsBNPmDIY3-69">
          <mxGeometry relative="1" as="geometry" />
        </mxCell>
        <mxCell id="2fLFqzH-GrjsBNPmDIY3-76" value="no" style="edgeStyle=orthogonalEdgeStyle;rounded=0;orthogonalLoop=1;jettySize=auto;html=1;exitX=1;exitY=0.5;exitDx=0;exitDy=0;entryX=1;entryY=0.5;entryDx=0;entryDy=0;fontColor=#000000;" edge="1" parent="1" source="2fLFqzH-GrjsBNPmDIY3-70" target="2fLFqzH-GrjsBNPmDIY3-75">
          <mxGeometry relative="1" as="geometry">
            <Array as="points">
              <mxPoint x="540" y="980" />
              <mxPoint x="540" y="1280" />
            </Array>
          </mxGeometry>
        </mxCell>
        <mxCell id="2fLFqzH-GrjsBNPmDIY3-70" value="distance&amp;nbsp; &amp;lt; 40&lt;br&gt;&amp;amp;&amp;amp;&lt;br&gt;points.Any()" style="rhombus;whiteSpace=wrap;html=1;fillColor=#ffffc0;strokeColor=#ff0000;" vertex="1" parent="1">
          <mxGeometry x="374" y="960" width="80" height="40" as="geometry" />
        </mxCell>
        <mxCell id="2fLFqzH-GrjsBNPmDIY3-78" value="yes" style="edgeStyle=orthogonalEdgeStyle;rounded=0;orthogonalLoop=1;jettySize=auto;html=1;exitX=0.5;exitY=1;exitDx=0;exitDy=0;entryX=0.5;entryY=0;entryDx=0;entryDy=0;fontColor=#000000;" edge="1" parent="1" source="2fLFqzH-GrjsBNPmDIY3-71" target="2fLFqzH-GrjsBNPmDIY3-72">
          <mxGeometry relative="1" as="geometry" />
        </mxCell>
        <mxCell id="2fLFqzH-GrjsBNPmDIY3-80" value="no" style="edgeStyle=orthogonalEdgeStyle;rounded=0;orthogonalLoop=1;jettySize=auto;html=1;exitX=1;exitY=0.5;exitDx=0;exitDy=0;fontColor=#000000;" edge="1" parent="1" source="2fLFqzH-GrjsBNPmDIY3-71" target="2fLFqzH-GrjsBNPmDIY3-75">
          <mxGeometry relative="1" as="geometry">
            <Array as="points">
              <mxPoint x="510" y="1149" />
              <mxPoint x="510" y="1250" />
              <mxPoint x="413" y="1250" />
            </Array>
          </mxGeometry>
        </mxCell>
        <mxCell id="2fLFqzH-GrjsBNPmDIY3-71" value="points.count &amp;gt;0" style="rhombus;whiteSpace=wrap;html=1;fillColor=#ffffc0;strokeColor=#ff0000;" vertex="1" parent="1">
          <mxGeometry x="373.38" y="1129" width="80" height="40" as="geometry" />
        </mxCell>
        <mxCell id="2fLFqzH-GrjsBNPmDIY3-81" style="edgeStyle=orthogonalEdgeStyle;rounded=0;orthogonalLoop=1;jettySize=auto;html=1;exitX=0.5;exitY=1;exitDx=0;exitDy=0;fontColor=#000000;" edge="1" parent="1" source="2fLFqzH-GrjsBNPmDIY3-72">
          <mxGeometry relative="1" as="geometry">
            <mxPoint x="413" y="1270" as="targetPoint" />
          </mxGeometry>
        </mxCell>
        <mxCell id="2fLFqzH-GrjsBNPmDIY3-72" value="heading(nnPoint)&lt;br&gt;SetDirection(nnPoint)" style="rounded=1;whiteSpace=wrap;html=1;arcSize=40;fontColor=#000000;fillColor=#ffffc0;strokeColor=#ff0000;" vertex="1" parent="1">
          <mxGeometry x="344" y="1200" width="138.75" height="30" as="geometry" />
        </mxCell>
        <mxCell id="2fLFqzH-GrjsBNPmDIY3-82" style="edgeStyle=orthogonalEdgeStyle;rounded=0;orthogonalLoop=1;jettySize=auto;html=1;exitX=0.5;exitY=1;exitDx=0;exitDy=0;entryX=0.5;entryY=0;entryDx=0;entryDy=0;fontColor=#000000;" edge="1" parent="1" source="2fLFqzH-GrjsBNPmDIY3-75" target="2fLFqzH-GrjsBNPmDIY3-20">
          <mxGeometry relative="1" as="geometry" />
        </mxCell>
        <mxCell id="2fLFqzH-GrjsBNPmDIY3-75" value="LastActive" style="rounded=1;whiteSpace=wrap;html=1;arcSize=40;fontColor=#000000;fillColor=#ffffc0;strokeColor=#ff0000;" vertex="1" parent="1">
          <mxGeometry x="371.25" y="1270" width="82.75" height="20" as="geometry" />
        </mxCell>
      </root>
    </mxGraphModel>
  </diagram>
</mxfile>
